<?xml version="1.0" encoding="UTF-8"?>
<!DOCTYPE svg PUBLIC "-//W3C//DTD SVG 1.1//EN" "http://www.w3.org/Graphics/SVG/1.1/DTD/svg11.dtd">
<svg xmlns="http://www.w3.org/2000/svg" version="1.1" width="300px" height="330px" style="shape-rendering:geometricPrecision; text-rendering:geometricPrecision; image-rendering:optimizeQuality; fill-rule:evenodd; clip-rule:evenodd" xmlns:xlink="http://www.w3.org/1999/xlink">
<g><path style="opacity:0.959" fill="#076096" d="M 208.5,103.5 C 204.018,104.326 199.351,104.826 194.5,105C 199,109.5 203.5,114 208,118.5C 208.483,119.448 208.649,120.448 208.5,121.5C 208.5,128.5 208.5,135.5 208.5,142.5C 194.067,158.435 179.067,173.935 163.5,189C 162.563,189.692 161.897,189.525 161.5,188.5C 161.333,151.498 161.5,114.498 162,77.5C 176.637,59.6971 191.803,42.3637 207.5,25.5C 208.5,51.4915 208.833,77.4915 208.5,103.5 Z"/></g>
<g><path style="opacity:0.961" fill="#046096" d="M 108.5,145.5 C 92.8852,162.782 76.5519,179.449 59.5,195.5C 59.3335,183.495 59.5001,171.495 60,159.5C 75.2999,140.368 91.1332,121.701 107.5,103.5C 108.499,117.484 108.833,131.484 108.5,145.5 Z"/></g>
<g><path style="opacity:0.958" fill="#e25c5c" d="M 208.5,103.5 C 227.5,103.5 246.5,103.5 265.5,103.5C 265.833,127.842 265.5,152.176 264.5,176.5C 254.88,168.382 245.713,159.715 237,150.5C 211.986,175.681 186.82,200.681 161.5,225.5C 145.234,209.735 129.068,193.735 113,177.5C 94.2676,195.731 76.1009,214.398 58.5,233.5C 55.4281,233.183 52.4281,233.516 49.5,234.5C 50.3742,236.747 50.7076,239.08 50.5,241.5C 47.9974,243.833 45.3307,245.999 42.5,248C 41.5,248.667 40.5,248.667 39.5,248C 33.4877,243.321 28.1543,237.988 23.5,232C 34.9934,219.34 46.9934,207.173 59.5,195.5C 76.5519,179.449 92.8852,162.782 108.5,145.5C 109.962,144.542 111.295,143.376 112.5,142C 113.167,141.333 113.833,141.333 114.5,142C 130.285,157.524 145.952,173.024 161.5,188.5C 161.897,189.525 162.563,189.692 163.5,189C 179.067,173.935 194.067,158.435 208.5,142.5C 212.298,139.204 215.964,135.704 219.5,132C 215.964,128.296 212.298,124.796 208.5,121.5C 208.649,120.448 208.483,119.448 208,118.5C 203.5,114 199,109.5 194.5,105C 199.351,104.826 204.018,104.326 208.5,103.5 Z"/></g>
<g><path style="opacity:0.871" fill="#026097" d="M 222.5,260.5 C 210.432,254.898 208.432,246.731 216.5,236C 219.487,233.918 222.821,232.751 226.5,232.5C 226.5,229.5 226.5,226.5 226.5,223.5C 227.833,223.5 229.167,223.5 230.5,223.5C 230.5,226.833 230.5,230.167 230.5,233.5C 232.262,233.357 233.929,233.691 235.5,234.5C 237.295,233.735 239.128,233.068 241,232.5C 242.301,233.098 243.135,234.098 243.5,235.5C 242.335,243.001 238.001,247.001 230.5,247.5C 242.293,251.086 246.126,258.752 242,270.5C 239.461,275.212 235.627,278.212 230.5,279.5C 230.5,282.5 230.5,285.5 230.5,288.5C 229.167,288.5 227.833,288.5 226.5,288.5C 226.5,285.833 226.5,283.167 226.5,280.5C 218.795,280.574 213.295,277.24 210,270.5C 209.272,273.23 209.438,275.897 210.5,278.5C 205.208,279.495 199.875,279.828 194.5,279.5C 195.801,269.648 195.801,259.981 194.5,250.5C 199.064,247.621 203.897,246.621 209,247.5C 209.333,254.5 209.667,261.5 210,268.5C 212.91,263.957 217.076,261.29 222.5,260.5 Z M 217.5,241.5 C 220.313,241.548 222.979,242.215 225.5,243.5C 226.429,244.689 226.762,246.022 226.5,247.5C 223.351,247.789 220.351,247.289 217.5,246C 216.272,244.51 216.272,243.01 217.5,241.5 Z M 222.5,260.5 C 223.583,260.539 224.583,260.873 225.5,261.5C 226.66,265.459 226.827,269.459 226,273.5C 225.095,269.063 223.928,264.73 222.5,260.5 Z M 230.5,263.5 C 235.604,265.86 236.604,269.36 233.5,274C 232.552,274.483 231.552,274.649 230.5,274.5C 230.5,270.833 230.5,267.167 230.5,263.5 Z"/></g>
<g><path style="opacity:0.819" fill="#026097" d="M 198.5,230.5 C 208.674,229.845 211.674,234.179 207.5,243.5C 200.609,246.874 196.275,244.874 194.5,237.5C 195.094,234.692 196.427,232.359 198.5,230.5 Z"/></g>
<g><path style="opacity:0.897" fill="#046096" d="M 58.5,233.5 C 61.7766,233.216 64.9433,233.549 68,234.5C 69.8637,239.091 71.5304,243.757 73,248.5C 73.8165,243.581 75.3165,238.914 77.5,234.5C 83.5,233.167 89.5,233.167 95.5,234.5C 94.1667,249.167 94.1667,263.833 95.5,278.5C 90.1667,279.833 84.8333,279.833 79.5,278.5C 80.6446,267.213 80.8112,255.88 80,244.5C 78.2602,245.716 77.2602,247.382 77,249.5C 75.4142,257.191 73.7475,264.858 72,272.5C 71.6322,273.91 70.7989,274.91 69.5,275.5C 67.8539,274.221 66.6872,272.555 66,270.5C 63.8281,261.307 60.4947,252.64 56,244.5C 55.3333,247.5 55.3333,250.5 56,253.5C 58.9333,260.602 62.1,267.602 65.5,274.5C 65.2395,276.187 64.5728,277.687 63.5,279C 58.798,279.828 54.1313,279.662 49.5,278.5C 50.4801,266.217 50.8134,253.884 50.5,241.5C 50.7076,239.08 50.3742,236.747 49.5,234.5C 52.4281,233.516 55.4281,233.183 58.5,233.5 Z"/></g>
<g><path style="opacity:0.901" fill="#026097" d="M 130.5,233.5 C 136.868,233.17 143.202,233.504 149.5,234.5C 148.421,245.036 149.588,255.369 153,265.5C 153.368,266.91 154.201,267.91 155.5,268.5C 160.138,256.741 159.138,245.407 152.5,234.5C 159.134,233.503 165.8,233.17 172.5,233.5C 171.629,243.341 172.796,253.008 176,262.5C 178.046,269.985 179.88,270.152 181.5,263C 180.338,255.848 178.172,249.015 175,242.5C 174.153,239.412 174.653,236.579 176.5,234C 182.528,233.17 188.528,233.336 194.5,234.5C 188.299,248.627 184.966,263.293 184.5,278.5C 177.532,279.497 170.532,279.83 163.5,279.5C 163.66,274.434 163.16,269.434 162,264.5C 160.281,269.12 159.781,273.787 160.5,278.5C 153.866,279.497 147.2,279.83 140.5,279.5C 140.685,272.897 139.852,266.23 138,259.5C 135.997,250.662 133.497,241.995 130.5,233.5 Z"/></g>
<g><path style="opacity:0.852" fill="#026097" d="M 109.5,246.5 C 121.68,245.012 128.68,250.345 130.5,262.5C 127.407,278.045 118.407,283.211 103.5,278C 92.6796,267.602 93.0129,257.602 104.5,248C 106.382,247.802 108.048,247.302 109.5,246.5 Z M 109.5,249.5 C 111.39,249.297 112.89,249.963 114,251.5C 117.263,258.499 118.263,265.832 117,273.5C 115.857,276.915 114.19,277.249 112,274.5C 108.006,266.399 107.173,258.066 109.5,249.5 Z"/></g>
<g><path style="opacity:0.844" fill="#026097" d="M 257.5,246.5 C 270.325,245.154 275.659,250.654 273.5,263C 268.388,265.013 263.055,266.013 257.5,266C 262.193,270.589 267.36,271.422 273,268.5C 273.772,268.645 274.439,268.978 275,269.5C 273.03,278.089 267.53,281.589 258.5,280C 247.029,276.832 242.529,269.332 245,257.5C 246.932,251.055 251.099,247.388 257.5,246.5 Z M 252.5,252.5 C 259.047,251.579 262.713,254.245 263.5,260.5C 260.201,261.376 256.868,261.543 253.5,261C 251.265,258.415 250.931,255.582 252.5,252.5 Z"/></g>
<g><path style="opacity:0.617" fill="#e2605f" d="M 50.5,291.5 C 53.1667,291.5 55.8333,291.5 58.5,291.5C 58.5,292.5 58.5,293.5 58.5,294.5C 52.8333,294.664 52.5,294.997 57.5,295.5C 57.5,296.5 57.5,297.5 57.5,298.5C 56.1667,298.5 54.8333,298.5 53.5,298.5C 53.5,299.833 53.5,301.167 53.5,302.5C 52.5,302.5 51.5,302.5 50.5,302.5C 50.5,298.833 50.5,295.167 50.5,291.5 Z"/></g>
<g><path style="opacity:0.665" fill="#e2605f" d="M 61.5,291.5 C 62.8333,291.5 64.1667,291.5 65.5,291.5C 65.5,295.167 65.5,298.833 65.5,302.5C 64.1667,302.5 62.8333,302.5 61.5,302.5C 61.5,298.833 61.5,295.167 61.5,291.5 Z"/></g>
<g><path style="opacity:0.692" fill="#e2605f" d="M 70.5,291.5 C 71.8333,291.5 73.1667,291.5 74.5,291.5C 75.7418,298.008 76.4085,298.008 76.5,291.5C 77.5,291.5 78.5,291.5 79.5,291.5C 79.5,295.167 79.5,298.833 79.5,302.5C 76.1405,303.21 74.3071,301.876 74,298.5C 73.51,299.793 73.3433,301.127 73.5,302.5C 72.5,302.5 71.5,302.5 70.5,302.5C 70.5,298.833 70.5,295.167 70.5,291.5 Z"/></g>
<g><path style="opacity:0.625" fill="#e2605f" d="M 86.5,291.5 C 88.1439,291.286 89.6439,291.62 91,292.5C 92.4737,295.756 93.6403,299.089 94.5,302.5C 92.4305,302.551 90.5971,301.885 89,300.5C 87.4329,301.856 85.5996,302.523 83.5,302.5C 84.3012,298.765 85.3012,295.099 86.5,291.5 Z"/></g>
<g><path style="opacity:0.65" fill="#e2605f" d="M 98.5,291.5 C 101.808,290.974 103.974,292.307 105,295.5C 105.49,294.207 105.657,292.873 105.5,291.5C 106.5,291.5 107.5,291.5 108.5,291.5C 108.5,295.167 108.5,298.833 108.5,302.5C 105.491,302.577 103.324,301.244 102,298.5C 101.51,299.793 101.343,301.127 101.5,302.5C 100.5,302.5 99.5,302.5 98.5,302.5C 98.5,298.833 98.5,295.167 98.5,291.5 Z"/></g>
<g><path style="opacity:0.611" fill="#e2605f" d="M 115.5,291.5 C 117.833,291.5 120.167,291.5 122.5,291.5C 122.5,292.5 122.5,293.5 122.5,294.5C 119.955,294.151 117.955,294.984 116.5,297C 117.955,299.016 119.955,299.849 122.5,299.5C 122.5,300.5 122.5,301.5 122.5,302.5C 113.445,303.139 111.111,299.472 115.5,291.5 Z"/></g>
<g><path style="opacity:0.59" fill="#e2605f" d="M 127.5,291.5 C 128.5,291.5 129.5,291.5 130.5,291.5C 130.5,295.167 130.5,298.833 130.5,302.5C 129.5,302.5 128.5,302.5 127.5,302.5C 127.5,298.833 127.5,295.167 127.5,291.5 Z"/></g>
<g><path style="opacity:0.641" fill="#e2605f" d="M 138.5,291.5 C 139.978,291.238 141.311,291.571 142.5,292.5C 143.909,295.727 144.909,299.06 145.5,302.5C 143.4,302.523 141.567,301.856 140,300.5C 138.322,302.282 136.489,302.615 134.5,301.5C 135.645,298.058 136.979,294.725 138.5,291.5 Z"/></g>
<g><path style="opacity:0.824" fill="#e2605f" d="M 149.5,291.5 C 150.5,291.5 151.5,291.5 152.5,291.5C 152.5,294.167 152.5,296.833 152.5,299.5C 153.833,299.5 155.167,299.5 156.5,299.5C 156.5,300.5 156.5,301.5 156.5,302.5C 154.167,302.5 151.833,302.5 149.5,302.5C 149.5,298.833 149.5,295.167 149.5,291.5 Z"/></g>
<g><path style="opacity:0.602" fill="#e2605f" d="M 170.5,291.5 C 172.833,291.5 175.167,291.5 177.5,291.5C 177.5,292.5 177.5,293.5 177.5,294.5C 175.801,294.34 174.134,294.506 172.5,295C 171.167,296.333 171.167,297.667 172.5,299C 174.134,299.494 175.801,299.66 177.5,299.5C 177.5,300.5 177.5,301.5 177.5,302.5C 168.225,302.929 165.892,299.263 170.5,291.5 Z"/></g>
<g><path style="opacity:0.636" fill="#e2605f" d="M 184.5,291.5 C 189.406,290.306 192.406,292.139 193.5,297C 191.374,302.804 187.707,303.971 182.5,300.5C 180.883,296.911 181.55,293.911 184.5,291.5 Z M 186.5,294.5 C 189.956,295.536 190.29,297.203 187.5,299.5C 185.296,298.218 184.962,296.551 186.5,294.5 Z"/></g>
<g><path style="opacity:0.68" fill="#e2605f" d="M 197.5,291.5 C 201.421,290.93 203.588,292.597 204,296.5C 205.009,294.975 205.509,293.308 205.5,291.5C 207.167,291.5 208.833,291.5 210.5,291.5C 210.5,295.167 210.5,298.833 210.5,302.5C 209.5,302.5 208.5,302.5 207.5,302.5C 207.167,298.5 206.833,298.5 206.5,302.5C 203.5,301.167 200.5,301.167 197.5,302.5C 197.5,298.833 197.5,295.167 197.5,291.5 Z"/></g>
<g><path style="opacity:0.641" fill="#e2605f" d="M 215.5,291.5 C 218.448,291.223 221.281,291.556 224,292.5C 225.328,297.338 223.494,299.671 218.5,299.5C 218.5,300.5 218.5,301.5 218.5,302.5C 217.5,302.5 216.5,302.5 215.5,302.5C 215.5,298.833 215.5,295.167 215.5,291.5 Z M 218.5,294.5 C 220.337,294.639 220.67,295.306 219.5,296.5C 218.702,296.043 218.369,295.376 218.5,294.5 Z"/></g>
<g><path style="opacity:0.625" fill="#e2605f" d="M 230.5,291.5 C 231.978,291.238 233.311,291.571 234.5,292.5C 235.909,295.727 236.909,299.06 237.5,302.5C 235.4,302.523 233.567,301.856 232,300.5C 230.322,302.282 228.489,302.615 226.5,301.5C 227.645,298.058 228.979,294.725 230.5,291.5 Z"/></g>
<g><path style="opacity:0.674" fill="#e2605f" d="M 241.5,291.5 C 244.808,290.974 246.974,292.307 248,295.5C 248.49,294.207 248.657,292.873 248.5,291.5C 249.5,291.5 250.5,291.5 251.5,291.5C 251.5,295.167 251.5,298.833 251.5,302.5C 249.097,302.607 247.264,301.607 246,299.5C 245.517,300.448 245.351,301.448 245.5,302.5C 244.167,302.5 242.833,302.5 241.5,302.5C 241.5,298.833 241.5,295.167 241.5,291.5 Z"/></g>
<g><path style="opacity:0.582" fill="#e2605f" d="M 255.5,291.5 C 258.238,290.965 260.072,291.965 261,294.5C 262.258,291.945 264.091,291.278 266.5,292.5C 264.049,295.4 262.715,298.734 262.5,302.5C 261.5,302.5 260.5,302.5 259.5,302.5C 258.999,298.505 257.666,294.838 255.5,291.5 Z"/></g>
</svg>
